<svg xmlns="http://www.w3.org/2000/svg" viewBox="0 0 1440 1000" fill="none"><title>SIJAK T0 — vistas de diseño industrial, interfaz universal y accesorios deportivos</title><defs><linearGradient id="face" x1="0" y1="0" x2="1" y2="1"><stop stop-color="#353A3C"/><stop offset=".28" stop-color="#1D2122"/><stop offset=".73" stop-color="#0E0F10"/><stop offset="1" stop-color="#282D2E"/></linearGradient><linearGradient id="edge" x1="0" y1="0" x2="1" y2="1"><stop stop-color="#6C7272"/><stop offset=".38" stop-color="#222627"/><stop offset="1" stop-color="#414748"/></linearGradient><linearGradient id="strap" x1="0" y1="0" x2="1" y2="1"><stop stop-color="#353A3C"/><stop offset="1" stop-color="#111314"/></linearGradient><radialGradient id="halo"><stop stop-color="#C6FF00" stop-opacity=".34"/><stop offset="1" stop-color="#C6FF00" stop-opacity="0"/></radialGradient><filter id="shadow" x="-50%" y="-50%" width="200%" height="200%"><feGaussianBlur stdDeviation="17"/></filter><pattern id="grain" width="5" height="5" patternUnits="userSpaceOnUse"><circle cx="1" cy="2" r=".35" fill="#F7F7F2" opacity=".16"/></pattern><pattern id="weave" width="8" height="8" patternUnits="userSpaceOnUse"><path d="M0 1h8M1 0v8" stroke="#969F9B" stroke-opacity=".12"/></pattern><symbol id="top" viewBox="0 0 280 280"><rect x="6" y="10" width="268" height="268" rx="66" fill="#060808"/><rect x="6" y="4" width="268" height="268" rx="66" fill="url(#edge)" stroke="#6B7272" stroke-width="1.5"/><rect x="13" y="11" width="254" height="254" rx="60" fill="url(#face)" stroke="#353A3B" stroke-width="2"/><rect x="13" y="11" width="254" height="254" rx="60" fill="url(#grain)" opacity=".35"/><path d="M27 68Q27 26 69 26H211" stroke="#B7C0BD" stroke-opacity=".17" stroke-width="2"/><path d="M23 226Q28 254 68 256H214" stroke="#050606" stroke-opacity=".65" stroke-width="2"/><text x="140" y="59" fill="#F7F7F2" fill-opacity=".8" font-family="Arial,sans-serif" font-weight="700" font-size="14" letter-spacing="2.5" text-anchor="middle">SIJAK</text><text x="227" y="229" fill="#F7F7F2" fill-opacity=".6" font-family="monospace" font-size="12" letter-spacing="2" text-anchor="end">T0</text><circle cx="140" cy="140" r="48" fill="url(#halo)"/><path d="M140 105Q143 125 151 130L174 140 151 150Q143 155 140 175 137 155 129 150L106 140 129 130Q137 125 140 105Z" fill="#10140C" stroke="#8FA830" stroke-width="2"/><path d="M140 112Q143 128 149 133L165 140 149 147Q143 152 140 168 137 152 131 147L115 140 131 133Q137 128 140 112Z" fill="#C6FF00"/></symbol><symbol id="base" viewBox="0 0 280 280"><rect x="6" y="6" width="268" height="268" rx="66" fill="url(#edge)" stroke="#5D6565" stroke-width="2"/><rect x="19" y="19" width="242" height="242" rx="56" fill="#121516" stroke="#2C3132"/><circle cx="140" cy="139" r="86" fill="#0B0D0E" stroke="#555C5D" stroke-width="3"/><circle cx="140" cy="139" r="66" fill="#1C2021" stroke="#3E4546" stroke-width="2"/><path d="M79 108h28q15 0 15-15v-9h36v9q0 15 15 15h28v62h-28q-15 0-15 15v9h-36v-9q0-15-15-15H79Z" fill="#303637" stroke="#6C7574" stroke-width="2"/><circle cx="140" cy="139" r="36" fill="#111415" stroke="#4C5555"/><path d="M111 118v-10h16M169 118v-10h-16M111 160v10h16M169 160v10h-16" stroke="#A6B1AE" stroke-width="2"/><path d="M196 72q25 21 28 51" stroke="#C6FF00" stroke-width="2" stroke-linecap="round"/><path d="m219 119 5 5 4-6" stroke="#C6FF00" stroke-width="2"/><circle cx="115" cy="235" r="7" fill="#AFB6B3" stroke="#505B59" stroke-width="3"/><circle cx="141" cy="235" r="7" fill="#AFB6B3" stroke="#505B59" stroke-width="3"/></symbol></defs><rect width="1440" height="1000" rx="12" fill="#111314"/><path d="M0 71h1440M0 705h1440" stroke="#fff" stroke-opacity=".11"/><text x="40" y="42" fill="#F7F7F2" font-family="Arial,sans-serif" font-size="18" font-weight="700" letter-spacing="2">SIJAK <tspan fill="#C6FF00">/</tspan> T0</text><text x="1395" y="41" fill="#8F9895" font-family="monospace" font-size="11" letter-spacing="1.4" text-anchor="end">EXTERIOR DESIGN STUDY   /   2027 CONCEPT</text><rect x="28" y="91" width="674" height="592" rx="9" fill="#171A1B" stroke="#fff" stroke-opacity=".09"/><text x="54" y="126" fill="#C6FF00" font-family="monospace" font-size="11" letter-spacing="1.5">01 / THE OBJECT</text><text x="54" y="153" fill="#B7BFBC" font-family="Arial,sans-serif" font-size="13">Compact by design. Identifiable by its spark.</text><ellipse cx="364" cy="529" rx="198" ry="26" fill="#000" opacity=".8" filter="url(#shadow)"/><g transform="translate(148 130) scale(.82) rotate(-12 252 226)"><rect x="126" y="136" width="355" height="353" rx="86" fill="#060808"/><rect x="130" y="126" width="347" height="350" rx="84" fill="url(#edge)" stroke="#676F6F" stroke-width="2"/><path d="M150 427q4 39 57 39h193q52 0 59-39" stroke="#A6ADAA" stroke-opacity=".28" stroke-width="2"/><path d="M155 458h298" stroke="#888F8D" stroke-opacity=".22" stroke-width="9" stroke-dasharray="2 7"/><rect x="126" y="96" width="355" height="355" rx="88" fill="url(#edge)" stroke="#737A79" stroke-width="2"/><rect x="134" y="104" width="339" height="339" rx="82" fill="url(#face)" stroke="#353B3C" stroke-width="2"/><rect x="134" y="104" width="339" height="339" rx="82" fill="url(#grain)" opacity=".3"/><path d="M150 181q0-61 60-61h192" stroke="#C6CECA" stroke-opacity=".16" stroke-width="2"/><text x="303" y="166" fill="#F7F7F2" fill-opacity=".8" font-family="Arial,sans-serif" font-size="18" font-weight="700" letter-spacing="3" text-anchor="middle">SIJAK</text><text x="423" y="394" fill="#F7F7F2" fill-opacity=".6" font-family="monospace" font-size="13" letter-spacing="2" text-anchor="end">T0</text><circle cx="303" cy="274" r="78" fill="url(#halo)"/><path d="M303 223Q308 251 317 258L354 274 317 290Q308 297 303 325 298 297 289 290L252 274 289 258Q298 251 303 223Z" fill="#0E1209" stroke="#81952D" stroke-width="2"/><path d="M303 233Q308 254 316 263L339 274 316 285Q308 294 303 315 298 294 290 285L267 274 290 263Q298 254 303 233Z" fill="#C6FF00"/><path d="M415 450h13" stroke="#C6FF00" stroke-width="2"/></g><path d="M72 494v23h161M492 246h139v-23" stroke="#C6FF00" stroke-opacity=".65"/><circle cx="233" cy="517" r="3" fill="#C6FF00"/><circle cx="492" cy="246" r="3" fill="#C6FF00"/><text x="54" y="557" fill="#F7F7F2" font-family="monospace" font-size="10" letter-spacing="1.1">STRONGLY ROUNDED / GENTLY CROWNED</text><text x="54" y="580" fill="#919B98" font-family="Arial,sans-serif" font-size="12">Matte PC+ABS concept · two-piece enclosure</text><text x="54" y="646" fill="#89928F" font-family="monospace" font-size="10" letter-spacing="1">NOMINAL BODY   38 × 38 mm  /  10–12 mm</text><rect x="721" y="91" width="691" height="592" rx="9" fill="#171A1B" stroke="#fff" stroke-opacity=".09"/><text x="745" y="126" fill="#C6FF00" font-family="monospace" font-size="11" letter-spacing="1.5">02 / FORM + UNIVERSAL CONNECTION</text><text x="757" y="168" fill="#A2ACA8" font-family="monospace" font-size="10" letter-spacing="1">TOP</text><text x="1094" y="168" fill="#A2ACA8" font-family="monospace" font-size="10" letter-spacing="1">BOTTOM / BAYONET</text><use href="#top" x="780" y="187" width="246" height="246"/><use href="#base" x="1111" y="187" width="246" height="246"/><path d="M765 455h608" stroke="#fff" stroke-opacity=".1"/><text x="766" y="488" fill="#A2ACA8" font-family="monospace" font-size="10" letter-spacing="1">SIDE / LOW PROFILE</text><path d="M796 555q0-26 27-26h247q27 0 27 26v20q0 22-24 22H820q-24 0-24-22Z" fill="url(#edge)" stroke="#707776" stroke-width="1.5"/><path d="M802 559h289" stroke="#141718" stroke-width="3"/><path d="M811 580h271" stroke="#858C89" stroke-opacity=".25" stroke-width="4" stroke-dasharray="2 6"/><path d="M819 602h258" stroke="#C6FF00" stroke-opacity=".45"/><path d="M803 628h281" stroke="#8C9792" stroke-opacity=".5"/><path d="M803 621v14m281-14v14" stroke="#8C9792"/><text x="944" y="652" fill="#A2ACA8" font-family="monospace" font-size="10" text-anchor="middle">38 mm</text><text x="1166" y="504" fill="#F7F7F2" font-family="Arial,sans-serif" font-size="13">Quarter-turn + detent stop</text><text x="1166" y="531" fill="#959E9A" font-family="Arial,sans-serif" font-size="12">Shallow keyed receiver</text><text x="1166" y="558" fill="#959E9A" font-family="Arial,sans-serif" font-size="12">Two recessed charge pads</text><text x="1166" y="585" fill="#959E9A" font-family="Arial,sans-serif" font-size="12">No visible front fasteners</text><path d="M1144 498h13m-13 27h13m-13 27h13m-13 27h13" stroke="#C6FF00"/><text x="40" y="739" fill="#C6FF00" font-family="monospace" font-size="11" letter-spacing="1.5">03 / SAME SENSOR. DIFFERENT RECEIVERS.</text><text x="1395" y="739" fill="#89938F" font-family="monospace" font-size="10" text-anchor="end">LED FACE ALWAYS EXPOSED</text><rect x="28" y="758" width="440" height="209" rx="9" fill="#171A1B" stroke="#fff" stroke-opacity=".09"/><text x="48" y="784" fill="#F7F7F2" font-family="monospace" font-size="10" letter-spacing="1">ANKLE / WRIST</text><path d="M69 851q147-42 333 0v34q-161 44-333 0Z" fill="url(#strap)" stroke="#555E5B" stroke-width="2"/><path d="M69 851q147-42 333 0v34q-161 44-333 0Z" fill="url(#weave)"/><rect x="189" y="802" width="96" height="95" rx="25" fill="#0A0C0D" stroke="#646D6A" stroke-width="3"/><use href="#top" x="194" y="807" width="86" height="86"/><text x="49" y="944" fill="#A2ACA8" font-family="Arial,sans-serif" font-size="12">Textile strap + flush polymer receiver</text><rect x="488" y="758" width="440" height="209" rx="9" fill="#171A1B" stroke="#fff" stroke-opacity=".09"/><text x="508" y="784" fill="#F7F7F2" font-family="monospace" font-size="10" letter-spacing="1">STRIKING PADDLE / HANDLE</text><path d="M528 850h341q25 0 25 23v16q0 23-25 23H528Z" fill="url(#strap)" stroke="#656F6D" stroke-width="2"/><path d="M528 865h345M528 893h345" stroke="#767F7B" stroke-opacity=".3" stroke-width="2"/><path d="M608 842v78m113-78v78" stroke="#4B5552" stroke-width="13"/><rect x="617" y="815" width="97" height="93" rx="26" fill="#090B0C" stroke="#636C69" stroke-width="3"/><use href="#top" x="623" y="819" width="86" height="86"/><text x="508" y="944" fill="#A2ACA8" font-family="Arial,sans-serif" font-size="12">Wrap clamp at the handle, not striking face</text><rect x="948" y="758" width="464" height="209" rx="9" fill="#171A1B" stroke="#fff" stroke-opacity=".09"/><text x="968" y="784" fill="#F7F7F2" font-family="monospace" font-size="10" letter-spacing="1">MOUNT PRINCIPLE</text><circle cx="1068" cy="861" r="52" fill="#111516" stroke="#606B67" stroke-width="3"/><path d="M1027 838h20v-15h42v15h20v46h-20v15h-42v-15h-20Z" fill="#2C3333" stroke="#808B86" stroke-width="2"/><circle cx="1068" cy="861" r="21" fill="#121616" stroke="#7B8781"/><path d="M1133 834h58m-58 0 18-12m-18 12 18 12" stroke="#C6FF00" stroke-width="2"/><text x="1208" y="828" fill="#F7F7F2" font-family="Arial,sans-serif" font-size="12">Insert → turn → lock</text><text x="1208" y="855" fill="#9FA9A4" font-family="Arial,sans-serif" font-size="11">Shared receiver geometry</text><text x="1208" y="878" fill="#9FA9A4" font-family="Arial,sans-serif" font-size="11">for strap / clamp / shield</text><text x="968" y="944" fill="#A2ACA8" font-family="Arial,sans-serif" font-size="12">Prototype PETG / PA12 · production PC+ABS</text></svg>